# xmcd CD database file
#
# Track frame offsets:
#	150
#	25072
#	44695
#	73312
#	96607
#	121520
#	156162
#	182638
#	216132
#	237482
#	254135
#
# Disc length: 3674 seconds
#
# Revision: 0
# Processed by: cddbd v1.5.1PL2 Copyright (c) Steve Scherf et al.
# Submitted via: CDex 1.51
#
DISCID=a50e580b
DTITLE=½Å±¤½Ä - memories of you
DYEAR=2003
DGENRE=Jazz
TTITLE0=memories of you
TTITLE1=stompin'at the savoy
TTITLE2=body and soul
TTITLE3=moon glow
TTITLE4=petite fleur(little flower) blue clarinet
TTITLE5=mambo influenciado
TTITLE6=my song
TTITLE7=take five
TTITLE8=insensatez(how insensitive)
TTITLE9=sing, sing, sing
TTITLE10=blue moon
EXTD=YEAR: 2003
EXTT0=
EXTT1=
EXTT2=
EXTT3=
EXTT4=
EXTT5=
EXTT6=
EXTT7=
EXTT8=
EXTT9=
EXTT10=
PLAYORDER=
